<?xml version='1.0' encoding='UTF-8'?>
<svg width="31mm" height="31mm" version="1.1" viewBox="0 0 31 31" xmlns="http://www.w3.org/2000/svg"><path d="M1,1H2V2H1zM2,1H3V2H2zM3,1H4V2H3zM4,1H5V2H4zM5,1H6V2H5zM6,1H7V2H6zM7,1H8V2H7zM9,1H10V2H9zM11,1H12V2H11zM12,1H13V2H12zM13,1H14V2H13zM19,1H20V2H19zM23,1H24V2H23zM24,1H25V2H24zM25,1H26V2H25zM26,1H27V2H26zM27,1H28V2H27zM28,1H29V2H28zM29,1H30V2H29zM1,2H2V3H1zM7,2H8V3H7zM10,2H11V3H10zM12,2H13V3H12zM13,2H14V3H13zM17,2H18V3H17zM18,2H19V3H18zM19,2H20V3H19zM20,2H21V3H20zM21,2H22V3H21zM23,2H24V3H23zM29,2H30V3H29zM1,3H2V4H1zM3,3H4V4H3zM4,3H5V4H4zM5,3H6V4H5zM7,3H8V4H7zM11,3H12V4H11zM12,3H13V4H12zM14,3H15V4H14zM16,3H17V4H16zM17,3H18V4H17zM18,3H19V4H18zM19,3H20V4H19zM20,3H21V4H20zM21,3H22V4H21zM23,3H24V4H23zM25,3H26V4H25zM26,3H27V4H26zM27,3H28V4H27zM29,3H30V4H29zM1,4H2V5H1zM3,4H4V5H3zM4,4H5V5H4zM5,4H6V5H5zM7,4H8V5H7zM9,4H10V5H9zM10,4H11V5H10zM12,4H13V5H12zM15,4H16V5H15zM16,4H17V5H16zM17,4H18V5H17zM19,4H20V5H19zM20,4H21V5H20zM23,4H24V5H23zM25,4H26V5H25zM26,4H27V5H26zM27,4H28V5H27zM29,4H30V5H29zM1,5H2V6H1zM3,5H4V6H3zM4,5H5V6H4zM5,5H6V6H5zM7,5H8V6H7zM9,5H10V6H9zM12,5H13V6H12zM14,5H15V6H14zM15,5H16V6H15zM17,5H18V6H17zM18,5H19V6H18zM19,5H20V6H19zM21,5H22V6H21zM23,5H24V6H23zM25,5H26V6H25zM26,5H27V6H26zM27,5H28V6H27zM29,5H30V6H29zM1,6H2V7H1zM7,6H8V7H7zM9,6H10V7H9zM14,6H15V7H14zM15,6H16V7H15zM16,6H17V7H16zM18,6H19V7H18zM20,6H21V7H20zM21,6H22V7H21zM23,6H24V7H23zM29,6H30V7H29zM1,7H2V8H1zM2,7H3V8H2zM3,7H4V8H3zM4,7H5V8H4zM5,7H6V8H5zM6,7H7V8H6zM7,7H8V8H7zM9,7H10V8H9zM11,7H12V8H11zM13,7H14V8H13zM15,7H16V8H15zM17,7H18V8H17zM19,7H20V8H19zM21,7H22V8H21zM23,7H24V8H23zM24,7H25V8H24zM25,7H26V8H25zM26,7H27V8H26zM27,7H28V8H27zM28,7H29V8H28zM29,7H30V8H29zM9,8H10V9H9zM10,8H11V9H10zM13,8H14V9H13zM15,8H16V9H15zM18,8H19V9H18zM19,8H20V9H19zM1,9H2V10H1zM5,9H6V10H5zM7,9H8V10H7zM8,9H9V10H8zM9,9H10V10H9zM10,9H11V10H10zM12,9H13V10H12zM14,9H15V10H14zM15,9H16V10H15zM16,9H17V10H16zM18,9H19V10H18zM21,9H22V10H21zM22,9H23V10H22zM23,9H24V10H23zM24,9H25V10H24zM25,9H26V10H25zM26,9H27V10H26zM29,9H30V10H29zM1,10H2V11H1zM2,10H3V11H2zM3,10H4V11H3zM4,10H5V11H4zM6,10H7V11H6zM8,10H9V11H8zM11,10H12V11H11zM12,10H13V11H12zM18,10H19V11H18zM19,10H20V11H19zM23,10H24V11H23zM24,10H25V11H24zM25,10H26V11H25zM26,10H27V11H26zM27,10H28V11H27zM28,10H29V11H28zM29,10H30V11H29zM2,11H3V12H2zM6,11H7V12H6zM7,11H8V12H7zM10,11H11V12H10zM11,11H12V12H11zM12,11H13V12H12zM14,11H15V12H14zM15,11H16V12H15zM16,11H17V12H16zM17,11H18V12H17zM18,11H19V12H18zM19,11H20V12H19zM21,11H22V12H21zM22,11H23V12H22zM23,11H24V12H23zM24,11H25V12H24zM25,11H26V12H25zM29,11H30V12H29zM5,12H6V13H5zM8,12H9V13H8zM9,12H10V13H9zM10,12H11V13H10zM13,12H14V13H13zM14,12H15V13H14zM18,12H19V13H18zM19,12H20V13H19zM20,12H21V13H20zM22,12H23V13H22zM25,12H26V13H25zM26,12H27V13H26zM28,12H29V13H28zM29,12H30V13H29zM2,13H3V14H2zM3,13H4V14H3zM5,13H6V14H5zM6,13H7V14H6zM7,13H8V14H7zM8,13H9V14H8zM9,13H10V14H9zM11,13H12V14H11zM12,13H13V14H12zM13,13H14V14H13zM14,13H15V14H14zM16,13H17V14H16zM18,13H19V14H18zM19,13H20V14H19zM20,13H21V14H20zM21,13H22V14H21zM22,13H23V14H22zM28,13H29V14H28zM2,14H3V15H2zM3,14H4V15H3zM4,14H5V15H4zM8,14H9V15H8zM9,14H10V15H9zM10,14H11V15H10zM12,14H13V15H12zM13,14H14V15H13zM14,14H15V15H14zM15,14H16V15H15zM16,14H17V15H16zM17,14H18V15H17zM18,14H19V15H18zM19,14H20V15H19zM23,14H24V15H23zM25,14H26V15H25zM26,14H27V15H26zM27,14H28V15H27zM28,14H29V15H28zM29,14H30V15H29zM3,15H4V16H3zM4,15H5V16H4zM5,15H6V16H5zM7,15H8V16H7zM10,15H11V16H10zM13,15H14V16H13zM16,15H17V16H16zM19,15H20V16H19zM25,15H26V16H25zM26,15H27V16H26zM27,15H28V16H27zM29,15H30V16H29zM11,16H12V17H11zM12,16H13V17H12zM15,16H16V17H15zM18,16H19V17H18zM19,16H20V17H19zM21,16H22V17H21zM22,16H23V17H22zM23,16H24V17H23zM28,16H29V17H28zM29,16H30V17H29zM1,17H2V18H1zM5,17H6V18H5zM6,17H7V18H6zM7,17H8V18H7zM9,17H10V18H9zM10,17H11V18H10zM12,17H13V18H12zM13,17H14V18H13zM14,17H15V18H14zM15,17H16V18H15zM18,17H19V18H18zM20,17H21V18H20zM22,17H23V18H22zM24,17H25V18H24zM28,17H29V18H28zM1,18H2V19H1zM5,18H6V19H5zM8,18H9V19H8zM9,18H10V19H9zM12,18H13V19H12zM13,18H14V19H13zM16,18H17V19H16zM17,18H18V19H17zM19,18H20V19H19zM23,18H24V19H23zM24,18H25V19H24zM25,18H26V19H25zM26,18H27V19H26zM28,18H29V19H28zM29,18H30V19H29zM3,19H4V20H3zM4,19H5V20H4zM5,19H6V20H5zM7,19H8V20H7zM8,19H9V20H8zM10,19H11V20H10zM13,19H14V20H13zM14,19H15V20H14zM15,19H16V20H15zM16,19H17V20H16zM21,19H22V20H21zM22,19H23V20H22zM23,19H24V20H23zM25,19H26V20H25zM27,19H28V20H27zM29,19H30V20H29zM5,20H6V21H5zM6,20H7V21H6zM10,20H11V21H10zM11,20H12V21H11zM12,20H13V21H12zM14,20H15V21H14zM16,20H17V21H16zM17,20H18V21H17zM18,20H19V21H18zM19,20H20V21H19zM23,20H24V21H23zM28,20H29V21H28zM29,20H30V21H29zM1,21H2V22H1zM2,21H3V22H2zM4,21H5V22H4zM5,21H6V22H5zM7,21H8V22H7zM11,21H12V22H11zM13,21H14V22H13zM14,21H15V22H14zM16,21H17V22H16zM18,21H19V22H18zM20,21H21V22H20zM21,21H22V22H21zM22,21H23V22H22zM23,21H24V22H23zM24,21H25V22H24zM25,21H26V22H25zM26,21H27V22H26zM29,21H30V22H29zM9,22H10V23H9zM11,22H12V23H11zM12,22H13V23H12zM14,22H15V23H14zM15,22H16V23H15zM16,22H17V23H16zM17,22H18V23H17zM19,22H20V23H19zM20,22H21V23H20zM21,22H22V23H21zM25,22H26V23H25zM29,22H30V23H29zM1,23H2V24H1zM2,23H3V24H2zM3,23H4V24H3zM4,23H5V24H4zM5,23H6V24H5zM6,23H7V24H6zM7,23H8V24H7zM9,23H10V24H9zM16,23H17V24H16zM18,23H19V24H18zM20,23H21V24H20zM21,23H22V24H21zM23,23H24V24H23zM25,23H26V24H25zM26,23H27V24H26zM27,23H28V24H27zM29,23H30V24H29zM1,24H2V25H1zM7,24H8V25H7zM10,24H11V25H10zM13,24H14V25H13zM15,24H16V25H15zM16,24H17V25H16zM17,24H18V25H17zM18,24H19V25H18zM19,24H20V25H19zM20,24H21V25H20zM21,24H22V25H21zM25,24H26V25H25zM28,24H29V25H28zM1,25H2V26H1zM3,25H4V26H3zM4,25H5V26H4zM5,25H6V26H5zM7,25H8V26H7zM9,25H10V26H9zM10,25H11V26H10zM13,25H14V26H13zM14,25H15V26H14zM15,25H16V26H15zM18,25H19V26H18zM20,25H21V26H20zM21,25H22V26H21zM22,25H23V26H22zM23,25H24V26H23zM24,25H25V26H24zM25,25H26V26H25zM26,25H27V26H26zM1,26H2V27H1zM3,26H4V27H3zM4,26H5V27H4zM5,26H6V27H5zM7,26H8V27H7zM10,26H11V27H10zM12,26H13V27H12zM14,26H15V27H14zM16,26H17V27H16zM17,26H18V27H17zM18,26H19V27H18zM19,26H20V27H19zM20,26H21V27H20zM22,26H23V27H22zM24,26H25V27H24zM29,26H30V27H29zM1,27H2V28H1zM3,27H4V28H3zM4,27H5V28H4zM5,27H6V28H5zM7,27H8V28H7zM11,27H12V28H11zM14,27H15V28H14zM16,27H17V28H16zM17,27H18V28H17zM18,27H19V28H18zM19,27H20V28H19zM26,27H27V28H26zM27,27H28V28H27zM28,27H29V28H28zM29,27H30V28H29zM1,28H2V29H1zM7,28H8V29H7zM10,28H11V29H10zM11,28H12V29H11zM12,28H13V29H12zM14,28H15V29H14zM15,28H16V29H15zM16,28H17V29H16zM17,28H18V29H17zM18,28H19V29H18zM19,28H20V29H19zM21,28H22V29H21zM23,28H24V29H23zM25,28H26V29H25zM26,28H27V29H26zM28,28H29V29H28zM29,28H30V29H29zM1,29H2V30H1zM2,29H3V30H2zM3,29H4V30H3zM4,29H5V30H4zM5,29H6V30H5zM6,29H7V30H6zM7,29H8V30H7zM9,29H10V30H9zM11,29H12V30H11zM12,29H13V30H12zM14,29H15V30H14zM15,29H16V30H15zM17,29H18V30H17zM18,29H19V30H18zM21,29H22V30H21zM22,29H23V30H22zM24,29H25V30H24zM25,29H26V30H25zM28,29H29V30H28z" id="qr-path" fill="#000000" fill-opacity="1" fill-rule="nonzero" stroke="none" /></svg>